<svg width="14" height="8" viewBox="0 0 14 8" fill="none" xmlns="http://www.w3.org/2000/svg">
<mask id="mask0_2_33634" style="mask-type:alpha" maskUnits="userSpaceOnUse" x="-5" y="-7" width="24" height="24">
<rect x="-5" y="-7" width="24" height="24" fill="#D9D9D9"/>
</mask>
<g mask="url(#mask0_2_33634)">
<path d="M7.00015 7.95005C6.86682 7.95005 6.74182 7.92922 6.62515 7.88755C6.50849 7.84588 6.40015 7.77505 6.30015 7.67505L1.67515 3.05005C1.49182 2.86672 1.40432 2.63755 1.41265 2.36255C1.42099 2.08755 1.49182 2.06569 1.67515 1.88236C1.85849 1.69902 2.21691 2.00004 2.50024 2.00004C2.31691 1.81671 2.78358 2.00004 2.50024 2.00004L7.00024 6.50005L11.5002 1.99998C11.6836 1.81665 11.7252 1.66668 12.0002 1.67501C12.0761 1.67516 12.3169 1.81679 12.5002 2.00012C12.6836 2.18346 12.5752 2.09172 12.5752 2.37505C12.5752 2.65838 12.4835 2.89172 12.3002 3.07505L7.70015 7.67505C7.60015 7.77505 7.49182 7.84588 7.37515 7.88755C7.25849 7.92922 7.13349 7.95005 7.00015 7.95005Z" fill="black"/>
</g>
</svg>
